***** Battle In Seattle.2007.DVDRiP.x264.AC3.NORDIC.mkv.Zen_Bud *****

Format                           : Matroska
File size                        : 1.63 GiB
Duration                         : 1h 35mn
Overall bit rate                 : 2 446 Kbps
Writing application              : HandBrake svn3506
Writing library                  : libmkv 0.6.4.1

Video

Format                           : AVC
Duration                         : 1h 35mn
Bit rate                         : 1 949 Kbps
Width                            : 720 pixels
Height                           : 552 pixels
Display aspect ratio             : 1.853
Stream size                      : 1.30 GiB (80%)
Writing library                  : x264 core 104


Audio

Format                           : AC-3
Duration                         : 1h 35mn
Bit rate                         : 448 Kbps
Channel(s)                       : 6 channels
Channel positions                : Front: L C R, Side: L R, LFE
Sampling rate                    : 48.0 KHz
Bit depth                        : 16 bits
Stream size                      : 305 MiB (18%)
Language                         : English

Text #1
Language                         : Danish

Text #2
Language                         : Norwegian

Text #3
Language                         : Finnish

Text #4
Language                         : Swedish

Menu
00:00:00.000                     : Chapter  1
00:10:48.000                     : Chapter  2


